<svg width="34" height="34" viewBox="0 0 34 34" fill="none" xmlns="http://www.w3.org/2000/svg">
<g clip-path="url(#clip0_211_2332)">
<path d="M32.7553 27.3486L32.557 27.0626C32.6882 26.9716 32.8001 26.8554 32.886 26.7208C32.972 26.5862 33.0303 26.4358 33.0576 26.2784C33.085 26.1211 33.0807 25.9599 33.0452 25.8042C33.0097 25.6484 32.9435 25.5014 32.8506 25.3714L32.8491 25.3693C31.542 23.5113 29.7611 22.0374 27.6914 21.1009L27.1867 20.8725L27.6115 20.5169C28.8713 19.4624 29.7756 18.0453 30.2011 16.4585C30.6266 14.8717 30.5527 13.1923 29.9895 11.6489C29.4263 10.1056 28.4012 8.77337 27.0536 7.83358C25.7061 6.89379 24.1017 6.39213 22.4588 6.3969L22.4572 6.3969C21.7261 6.39568 20.9984 6.49664 20.2952 6.69683L20.289 6.69861L20.289 6.69855C20.1328 6.73988 19.9864 6.81187 19.8583 6.91033C19.7302 7.00878 19.6229 7.13174 19.5428 7.27204C19.4627 7.41233 19.4113 7.56717 19.3916 7.72752C19.3719 7.88788 19.3842 8.05056 19.428 8.20608C19.4718 8.36161 19.546 8.50687 19.6465 8.63342C19.7469 8.75997 19.8715 8.86527 20.0131 8.9432C20.1546 9.02112 20.3102 9.07012 20.4708 9.08733C20.6315 9.10453 20.794 9.08961 20.9488 9.04343L20.9528 9.04224L20.9528 9.04226C21.4424 8.90257 21.9493 8.83218 22.4585 8.83314M32.7553 27.3486L30.8599 26.7692C29.9108 25.4228 28.6525 24.3239 27.1906 23.5647C25.7285 22.8055 24.1056 22.4083 22.4582 22.4065H22.4578C22.1347 22.4065 21.8249 22.2782 21.5965 22.0497C21.368 21.8213 21.2397 21.5114 21.2397 21.1884C21.2397 20.8653 21.368 20.5555 21.5965 20.327C21.8249 20.0986 22.1347 19.9703 22.4578 19.9703C23.9347 19.9703 25.3511 19.3836 26.3954 18.3393C27.4397 17.295 28.0264 15.8786 28.0264 14.4017C28.0264 12.9248 27.4397 11.5084 26.3954 10.4641C25.3512 9.41998 23.9351 8.83332 22.4585 8.83314M32.7553 27.3486L32.5529 27.0654C32.3497 27.2107 32.1061 27.2884 31.8563 27.2877L32.7553 27.3486ZM22.4585 8.83314L22.4578 9.18118V8.83314C22.458 8.83314 22.4582 8.83314 22.4585 8.83314ZM16.9741 20.5175L16.5513 20.8731L17.0546 21.1009C19.1243 22.0374 20.9052 23.5113 22.2123 25.3693L22.2173 25.3764L22.2226 25.3832C22.3241 25.5133 22.3982 25.6626 22.4403 25.8222C22.4823 25.9818 22.4915 26.1482 22.4673 26.3115C22.4431 26.4747 22.386 26.6313 22.2994 26.7718C22.2128 26.9123 22.0986 27.0337 21.9636 27.1287C21.8287 27.2237 21.6759 27.2903 21.5144 27.3245C21.353 27.3586 21.1863 27.3596 21.0244 27.3274C20.8626 27.2951 20.709 27.2303 20.5729 27.1369C20.4369 27.0435 20.3212 26.9235 20.233 26.784L20.2285 26.777L20.2237 26.7701C19.2766 25.4211 18.0185 24.3199 16.556 23.5598C15.0934 22.7996 13.4693 22.4027 11.821 22.4027C10.1727 22.4027 8.54857 22.7996 7.086 23.5598C5.62343 24.3199 4.36539 25.4211 3.41823 26.7701L3.41746 26.7712C3.30612 26.9311 3.15766 27.0616 2.98482 27.1516C2.81197 27.2415 2.61989 27.2882 2.42505 27.2877L2.42291 27.2877C2.17302 27.2885 1.92919 27.2108 1.72589 27.0654L1.72422 27.0643C1.4607 26.8782 1.28172 26.5953 1.22654 26.2775C1.17136 25.9598 1.24444 25.6331 1.42977 25.3691C2.73686 23.5113 4.51777 22.0374 6.58734 21.1009L7.09065 20.8731L6.66789 20.5175C5.41147 19.4605 4.51045 18.0427 4.08699 16.4564C3.66354 14.8701 3.73813 13.1919 4.30066 11.6494C4.86318 10.1069 5.88643 8.77463 7.23168 7.83331C8.57693 6.89198 10.1791 6.3871 11.821 6.3871C13.4629 6.3871 15.065 6.89198 16.4103 7.83331C17.7555 8.77463 18.7788 10.1069 19.3413 11.6494C19.9038 13.1919 19.9784 14.8701 19.555 16.4564C19.1315 18.0427 18.2305 19.4605 16.9741 20.5175ZM7.1909 11.308C6.57902 12.2237 6.25243 13.3003 6.25243 14.4017C6.25243 15.8786 6.83911 17.295 7.88342 18.3393C8.92773 19.3836 10.3441 19.9703 11.821 19.9703C12.9223 19.9703 13.999 19.6437 14.9147 19.0318C15.8305 18.4199 16.5442 17.5502 16.9657 16.5327C17.3871 15.5152 17.4974 14.3955 17.2825 13.3153C17.0677 12.2351 16.5373 11.2429 15.7585 10.4641C14.9798 9.68536 13.9875 9.155 12.9074 8.94014C11.8272 8.72528 10.7075 8.83555 9.68999 9.25702C8.67247 9.67849 7.80278 10.3922 7.1909 11.308Z" fill="#FEDD30" stroke="#FEDD30" stroke-width="0.696069"/>
</g>
<defs>
<clipPath id="clip0_211_2332">
<rect width="33.4113" height="33.4113" fill="white" transform="translate(0.335876 0.306274)"/>
</clipPath>
</defs>
</svg>
