<svg width="42" height="43" viewBox="0 0 42 43" fill="none" xmlns="http://www.w3.org/2000/svg">
<path d="M25.6775 20.2011C25.8645 19.9986 25.9647 19.7356 25.9647 19.4625V19.4623L25.9649 12.6599V12.6599C25.9649 12.6599 25.9649 12.6598 25.9649 12.6598C25.9648 10.4044 24.4775 8.44502 22.4516 8.09925L22.4664 8.04513H21.8106C21.8106 8.04513 21.8106 8.04513 21.8106 8.04513C20.0258 8.04514 18.5935 9.09045 17.9988 10.7986C17.9988 10.7986 17.9988 10.7986 17.9987 10.7986L25.6775 20.2011ZM25.6775 20.2011H25.8697C26.024 19.9887 26.1074 19.7322 26.1074 19.4623L26.1072 12.6598C26.1072 10.028 24.1798 7.88701 21.8106 7.88701C19.9861 7.88701 18.4734 8.98455 17.8624 10.7514L25.6775 20.2011ZM18.8629 13.4426C18.9502 13.5025 19.0055 13.6041 19.0055 13.7162V20.5145C19.0055 20.8353 19.2418 21.1121 19.5322 21.1317C19.6996 21.1408 19.8558 21.0832 19.9731 20.9633C20.0797 20.854 20.1385 20.7085 20.1385 20.5528V16.1066C20.1385 15.9248 20.2824 15.7774 20.4599 15.7774C20.6374 15.7774 20.7813 15.9246 20.7813 16.1066L20.7811 21.5634C20.7811 21.8834 21.0352 22.1437 21.3476 22.1437C21.4993 22.1437 21.6418 22.0836 21.7486 21.9743C21.8553 21.8648 21.914 21.7189 21.914 21.5634V16.1066C21.914 15.9248 22.0577 15.7774 22.2354 15.7774C22.4129 15.7774 22.5568 15.9246 22.5568 16.1066L22.5566 20.5017V20.5528C22.5566 20.8725 22.8108 21.1329 23.1233 21.1329C23.1991 21.1329 23.2726 21.1178 23.3405 21.0889L23.1618 21.2011H23.4635C23.36 21.2603 23.2441 21.291 23.1233 21.291C23.1232 21.291 23.1232 21.291 23.1231 21.291C23.0118 21.291 22.9015 21.2597 22.7931 21.1993L22.414 20.9878V20.5528V20.5017V20.5017V16.1066M18.8629 13.4426L21.8555 22.0789C21.8556 22.0788 21.8557 22.0787 21.8557 22.0787C21.9709 21.9551 22.0398 21.7922 22.0504 21.6075L22.0529 21.5634L22.0943 20.8372C22.0697 20.7462 22.0566 20.6507 22.0566 20.5528V20.5017V20.5017L22.0568 16.1066M18.8629 13.4426V13.7162V14.9435V20.5143C18.8629 20.5144 18.8629 20.5144 18.8629 20.5145C18.863 20.948 19.1775 21.265 19.5215 21.2893C19.5221 21.2893 19.5227 21.2894 19.5232 21.2894C19.5234 21.2894 19.5235 21.2894 19.5236 21.2894C19.6498 21.2976 19.7796 21.2669 19.9033 21.1983L20.1014 21.0887L20.1015 21.0886L20.2811 20.9892L20.2811 20.5528L20.2813 16.1066M18.8629 13.4426L21.3476 22.3018C21.3475 22.3018 21.3475 22.3018 21.3475 22.3018C20.9854 22.3018 20.6679 22.0067 20.6447 21.6068L20.6422 21.5634V21.5634L20.6003 20.841C20.6255 20.7479 20.6385 20.6511 20.6385 20.5528V16.1066M22.414 16.1066C22.414 16.1893 22.3454 16.2774 22.2354 16.2774C22.1257 16.2774 22.0568 16.1895 22.0568 16.1066M22.414 16.1066L22.2354 16.1066L22.0568 16.1066V16.1066M22.414 16.1066H22.2354H22.0568M20.2813 16.1066V16.1066L20.4599 16.1066L20.6385 16.1066M20.2813 16.1066C20.2813 16.1895 20.3501 16.2774 20.4599 16.2774C20.5698 16.2774 20.6385 16.1895 20.6385 16.1066M20.2813 16.1066H20.4599H20.6385M21.2823 8.58077C19.9647 8.76216 18.9329 9.62717 18.468 10.9715L21.2823 8.58077ZM21.2823 8.58077L21.3274 8.41666L21.2823 8.58077ZM22.3601 8.43232L22.3182 8.58477C24.0939 8.86385 25.4649 10.5852 25.4649 12.6599L25.4647 19.4625C25.4647 19.6179 25.4062 19.7639 25.2991 19.8736C25.1924 19.9826 25.0504 20.043 24.8984 20.043C24.5863 20.043 24.3321 19.7826 24.3321 19.4625L22.3601 8.43232ZM23.4906 20.9947C23.5022 20.9846 23.5135 20.9739 23.5244 20.9628L23.4906 20.9947ZM21.8106 8.54513L21.8106 8.38701L21.8106 8.54513Z" fill="#FEDD30" stroke="#FEDD30"/>
<path d="M10.4358 22.6649L10.4357 22.6651L10.4346 22.6672L10.4303 22.675L10.4139 22.7053L10.3513 22.8209L10.1269 23.235L9.43761 24.5069C8.95424 25.3988 8.4582 26.3139 8.36095 26.4925C8.3348 26.531 8.28774 26.6 8.24645 26.6602L8.24608 26.6607C8.20967 26.7139 8.16696 26.769 8.11631 26.8316L8.1158 26.8322C6.82086 28.4394 6.66352 30.5585 7.70722 32.3404L10.4358 22.6649ZM10.4358 22.6649L10.436 22.6645L10.4361 22.6644L10.4358 22.6649ZM10.7668 23.1034C10.6306 23.037 10.5019 22.9115 10.4263 22.6833L10.8706 22.9119L11.0007 22.9788L10.7668 23.1034ZM10.7668 23.1034C10.8131 23.126 10.8603 23.1417 10.9066 23.1524C10.9366 23.097 10.967 23.0408 10.9979 22.9838C10.998 22.9837 10.9981 22.9836 10.9981 22.9834L10.7668 23.1034ZM14.0483 26.8421C14.1395 26.9981 14.3367 27.0489 14.4892 26.9549L14.0483 26.8421ZM14.0483 26.8421C13.957 26.6863 14.0065 26.484 14.1584 26.3904L14.2391 26.5217L14.2274 26.5289C14.2314 26.5265 14.2353 26.5242 14.2393 26.5222L14.3333 26.675L14.3336 26.6755L14.4202 26.8164L14.4206 26.8161M14.0483 26.8421L18.2109 24.6676H18.2112L18.2116 24.6674M18.2116 24.6674L18.2112 24.6668L18.2109 24.6664L18.1308 24.5361L18.1303 24.5364L14.4206 26.8161M18.2116 24.6674V24.4827V24.6674ZM14.4206 26.8161L14.3339 26.6753L14.3336 26.6749L14.2395 26.5221C14.3281 26.4764 14.434 26.5119 14.4797 26.5892C14.4798 26.5895 14.4799 26.5897 14.48 26.5899C14.5234 26.6646 14.5038 26.7649 14.4206 26.8161ZM9.00073 27.565L8.88488 27.4716L9.00073 27.565ZM9.00073 27.565C7.99933 28.8079 7.88306 30.3719 8.68941 31.7492C9.18888 32.6022 10.0144 33.187 11.0139 33.3961L9.00073 27.565ZM9.00073 27.565L8.88477 27.4718L9.00073 27.565ZM9.83531 27.2057C9.8306 27.2193 9.82476 27.2348 9.81778 27.2512C9.79946 27.2941 9.77883 27.33 9.76078 27.3594C9.7312 27.4075 9.68298 27.4781 9.61002 27.5848L9.5975 27.6032L9.59697 27.6039C9.52884 27.7033 9.45713 27.7953 9.39044 27.8782L9.39007 27.8787C8.51898 28.9598 8.41946 30.2985 9.12089 31.4965C9.54634 32.2231 10.2496 32.7253 11.116 32.9066C11.9949 33.0896 12.9304 32.9215 13.7518 32.4166L13.7518 32.4166L19.4466 28.917L19.4468 28.9169C19.4626 28.9072 19.4751 28.8921 19.481 28.8678L19.481 28.8676C19.4869 28.8434 19.4834 28.8206 19.4712 28.7998L19.4711 28.7996C19.4488 28.7615 19.4109 28.7592 19.3881 28.7733L19.3874 28.7737L9.83531 27.2057ZM14.2392 26.5216L17.9492 24.2417L17.9609 24.2344L17.961 24.2344L18.0696 24.1676H18.0698L18.3116 24.0191L18.301 23.7862L14.2392 26.5216ZM18.301 23.7862L18.2913 23.5723C18.2848 23.4283 18.2447 23.2977 18.1754 23.1903L18.301 23.7862ZM15.1409 28.0886L15.1411 28.0885L15.1409 28.0886ZM16.0543 29.6484L16.0545 29.6483L16.0543 29.6484ZM8.61101 27.2517C8.61431 27.2476 8.61758 27.2435 8.62083 27.2395L8.59356 27.3457L8.63666 27.2723L8.61101 27.2517ZM8.92174 27.4257C8.91243 27.4374 8.90324 27.4488 8.89421 27.46C8.89413 27.4601 8.89405 27.4602 8.89397 27.4603L8.92174 27.4257Z" fill="#FEDD30" stroke="#FEDD30"/>
<path d="M22.8603 24.3471C22.7822 24.48 22.7597 24.6361 22.7959 24.7861C22.8325 24.9362 22.9245 25.063 23.0545 25.143L23.9434 25.6891M22.8603 24.3471L22.7337 24.2731C22.6402 24.4395 22.6127 24.6316 22.6569 24.8197C22.6569 24.8198 22.6569 24.8199 22.657 24.8201C22.6575 24.8223 22.658 24.8246 22.6586 24.8269L22.6587 24.8272C22.7011 25.0009 22.8034 25.1482 22.9512 25.2523L22.9763 25.2701L22.9764 25.2701L23.5625 25.6832C23.6549 25.7091 23.7456 25.7483 23.832 25.8016C23.8321 25.8016 23.8321 25.8016 23.8322 25.8017L23.8627 25.8204L23.9434 25.6891M22.8603 24.3471C22.9382 24.2137 23.0617 24.1197 23.2086 24.0822M22.8603 24.3471L22.7339 24.2728M23.9434 25.6891L23.8627 25.8204M23.9434 25.6891L27.6222 27.9501M23.8627 25.8204L23.5699 26.2274L27.2914 28.5146M23.8627 25.8204L27.5415 28.0814L27.6222 27.9501M23.8627 25.8204L23.6816 26.1151L23.6816 26.1151L27.3602 28.376M27.6222 27.9501C27.7744 28.0437 27.8237 28.2458 27.7323 28.4018M27.6222 27.9501L27.5415 28.0814L27.5528 28.0884C27.549 28.086 27.5452 28.0839 27.5413 28.0818L27.4474 28.2346L27.459 28.2414L27.5529 28.0884L27.5532 28.0886L27.4592 28.2415L27.7323 28.4018M27.7323 28.4018C27.6409 28.5575 27.4439 28.6082 27.2914 28.5146M27.7323 28.4018L27.459 28.2418L27.2914 28.5146M27.2914 28.5146L27.4588 28.2417L27.4472 28.2349L27.3604 28.3761L27.3602 28.376M27.3602 28.376C27.2763 28.3244 27.2575 28.2232 27.3008 28.1492L27.4471 28.2348L27.3602 28.376ZM22.9844 25.6868C22.8999 25.7114 22.8184 25.7465 22.742 25.7915C22.5932 25.8791 22.4636 26.004 22.3686 26.1615L22.2419 26.0874M22.9844 25.6868L25.7598 22.563C25.1968 22.2169 24.4739 22.3645 24.1131 22.8978C24.0795 22.9474 24.0502 22.999 24.0249 23.0523C24.0639 23.0697 24.1023 23.0885 24.14 23.1087L23.9038 23.5494L23.4043 23.5264C23.4061 23.487 23.4092 23.4475 23.4135 23.408C23.3917 23.4067 23.3699 23.406 23.348 23.406M22.9844 25.6868L22.7928 25.569L22.7925 25.5688C22.7775 25.5596 22.7628 25.5501 22.7483 25.5402C22.5304 25.391 22.3763 25.1683 22.3119 24.9118C22.3119 24.9118 22.3119 24.9117 22.3119 24.9117C22.3113 24.9094 22.3107 24.907 22.3102 24.9047L22.3099 24.9035C22.2436 24.6291 22.2847 24.3402 22.4288 24.0944M22.9844 25.6868L22.4288 24.0944M22.2419 26.0874C22.258 26.06 22.2749 26.0336 22.2927 26.008C22.3195 26.0294 22.347 26.0499 22.3751 26.0698L22.6631 25.661L22.4045 25.2332C22.3744 25.2514 22.3447 25.2705 22.3155 25.2907C22.2516 25.1854 22.2032 25.0696 22.1729 24.9457C22.0944 24.6247 22.1431 24.2918 22.3094 24.0081C22.4754 23.7242 22.7396 23.5237 23.0528 23.4435C23.1506 23.4183 23.2498 23.406 23.348 23.406M22.2419 26.0874C22.0757 26.3714 22.027 26.7045 22.1055 27.0253L22.2419 26.0874ZM23.348 23.406L23.3478 23.5646M23.348 23.406V23.5646C23.5159 23.5648 23.6815 23.6054 23.8319 23.6835C23.8546 23.6953 23.877 23.7079 23.8989 23.7214L23.8991 23.7215L24.06 23.8204C24.0423 23.7323 24.0356 23.6435 24.0395 23.5557C24.0485 23.3565 24.1123 23.1624 24.2272 22.9926L23.3478 23.5646M23.3478 23.5646C23.2626 23.5645 23.1767 23.5748 23.092 23.5959C23.0919 23.5959 23.0918 23.596 23.0918 23.596C23.0895 23.5965 23.0872 23.5971 23.0849 23.5977C22.8104 23.6678 22.5805 23.8424 22.4361 24.0822C22.436 24.0822 22.436 24.0823 22.436 24.0823C22.4336 24.0863 22.4312 24.0904 22.4288 24.0944M23.3478 23.5646L23.1697 23.9297L23.2086 24.0822M24.3826 24.0187L24.3934 23.7857L24.3934 23.7854L24.4033 23.5725C24.4099 23.428 24.4501 23.2972 24.5193 23.19L24.3826 24.0187ZM24.3826 24.0187L24.7335 24.2343L24.7346 24.235L24.8068 24.1175L24.8153 24.1036M24.3826 24.0187L24.8143 24.1028L24.8153 24.1036M24.8153 24.1036L28.5361 26.3902L24.7448 24.2413L24.8153 24.1036ZM22.4288 24.0944C22.4289 24.0942 22.429 24.094 22.4291 24.0939L22.7339 24.2728M22.7339 24.2728C22.7361 24.2688 22.7384 24.2649 22.7407 24.2609L22.741 24.2605C22.8394 24.0922 22.9912 23.9774 23.1694 23.9298L23.2086 24.0822M22.7339 24.2728L23.6373 24.1475C23.5077 24.0679 23.3551 24.0444 23.2086 24.0822M34.0362 26.9424C34.0843 27.0123 34.1362 27.0791 34.19 27.1455L31.8192 22.9019C32.5106 24.1782 33.8155 26.5852 33.9072 26.7532C33.9267 26.7823 33.9857 26.8689 34.0362 26.9424ZM27.4473 28.2345L27.5412 28.0818C27.4524 28.0356 27.3465 28.0713 27.3011 28.1487L27.4473 28.2345ZM23.2833 25.8704L22.9218 26.0889C22.8223 26.1491 22.7364 26.2328 22.6733 26.3401C22.6733 26.3402 22.6732 26.3403 22.6732 26.3404L23.2833 25.8704ZM24.539 24.5203C24.4598 24.47 24.3886 24.4104 24.3262 24.3431L24.539 24.5203Z" fill="#FEDD30" stroke="#FEDD30"/>
</svg>
