<svg width="34" height="34" viewBox="0 0 34 34" fill="none" xmlns="http://www.w3.org/2000/svg">
<path d="M4.33838 11.6342V11.9822H4.68641H29.7449H30.0929V11.6342V10.068C30.0929 9.28345 29.7813 8.53099 29.2265 7.97621C28.6717 7.42142 27.9192 7.10974 27.1347 7.10974H7.29667C6.51209 7.10974 5.75963 7.42142 5.20484 7.97621C4.65006 8.53099 4.33838 9.28345 4.33838 10.068V11.6342ZM30.0929 13.7224V13.3744H29.7449H4.68641H4.33838V13.7224V23.6414C4.33838 24.426 4.65006 25.1784 5.20484 25.7332C5.75963 26.288 6.51209 26.5997 7.29667 26.5997H27.1347C27.9192 26.5997 28.6717 26.288 29.2265 25.7332C29.7813 25.1784 30.0929 24.426 30.0929 23.6414V13.7224ZM2.94624 10.068C2.94624 8.91423 3.40459 7.80768 4.22045 6.99182C5.03632 6.17595 6.14287 5.7176 7.29667 5.7176H27.1347C28.2885 5.7176 29.395 6.17595 30.2109 6.99182C31.0267 7.80768 31.4851 8.91423 31.4851 10.068V23.6414C31.4851 24.7952 31.0267 25.9017 30.2109 26.7176C29.395 27.5335 28.2885 27.9918 27.1347 27.9918H7.29667C6.14287 27.9918 5.03632 27.5335 4.22045 26.7176C3.40459 25.9017 2.94624 24.7952 2.94624 23.6414V10.068ZM22.4362 20.3351H25.5685C25.7531 20.3351 25.9302 20.4084 26.0607 20.5389C26.1912 20.6695 26.2646 20.8465 26.2646 21.0311C26.2646 21.2157 26.1912 21.3928 26.0607 21.5233C25.9302 21.6539 25.7531 21.7272 25.5685 21.7272H22.4362C22.2516 21.7272 22.0745 21.6539 21.944 21.5233C21.8135 21.3928 21.7401 21.2157 21.7401 21.0311C21.7401 20.8465 21.8135 20.6695 21.944 20.5389C22.0745 20.4084 22.2516 20.3351 22.4362 20.3351Z" fill="#FEDD30" stroke="#FEDD30" stroke-width="0.696069"/>
</svg>
