<svg width="41" height="67" viewBox="0 0 41 67" fill="none" xmlns="http://www.w3.org/2000/svg">
<path d="M20.1546 5.51954C22.8022 5.55927 25.4395 5.85076 28.0292 6.38988L29.0496 6.60596V3.43674C28.9938 2.72963 28.6724 2.06759 28.147 1.57787C27.6216 1.08816 26.9294 0.80532 26.2035 0.783724H25.3736V2.19427C24.5253 2.06822 23.6524 1.96018 22.6811 1.88815V0.501616L22.0664 0.327549C20.8227 -0.0326855 19.4987 -0.0326855 18.2551 0.327549L17.6404 0.501616V1.88815C16.6691 1.96018 15.7962 2.06822 14.9479 2.19427V0.777722H14.1303C13.4301 0.802488 12.7614 1.06772 12.2419 1.52669C11.7223 1.98565 11.3854 2.60892 11.2903 3.28669V6.59996L12.3046 6.38388C14.8864 5.84813 17.5154 5.55866 20.1546 5.51954ZM12.1632 3.43674C12.2193 2.9491 12.451 2.49677 12.8169 2.16038C13.1828 1.82399 13.6591 1.62541 14.161 1.60004V3.14863C15.571 2.91148 16.9931 2.74918 18.4211 2.66245H18.5317V1.11385C19.6181 0.793723 20.7771 0.793723 21.8635 1.11385V2.65644H21.9803C23.4062 2.74352 24.8262 2.90582 26.2342 3.14263V1.60004C26.7372 1.62403 27.215 1.822 27.5821 2.15851C27.9493 2.49502 28.1819 2.94813 28.2382 3.43674V5.59157C25.5837 5.03947 22.8806 4.73995 20.1669 4.69723C17.4655 4.7419 14.7748 5.04141 12.1325 5.59157L12.1632 3.43674Z" fill="#004979"/>
<path d="M39.7274 11.9181C34.3178 8.88089 27.3776 7.17023 20.1976 7.11621H20.1362C12.9562 7.18224 5.99755 8.9169 0.637172 11.9181H0.594142L0.169983 12.1401V47.9859C0.175293 48.6865 0.333155 49.3779 0.63309 50.0144C0.933026 50.6508 1.36817 51.2177 1.90965 51.6773L18.3166 65.7347C18.8308 66.1634 19.4847 66.3989 20.1608 66.3989C20.8369 66.3989 21.4908 66.1634 22.0049 65.7347L38.4303 51.6773C38.9727 51.2184 39.4085 50.6517 39.7085 50.0151C40.0085 49.3785 40.1659 48.6867 40.17 47.9859V12.1461L39.7274 11.9181ZM39.3278 47.9859C39.325 48.5729 39.1935 49.1524 38.9422 49.6856C38.691 50.2188 38.3257 50.6933 37.8709 51.0771L21.4701 65.1285C21.1065 65.4309 20.6445 65.5969 20.1669 65.5969C19.6893 65.5969 19.2273 65.4309 18.8637 65.1285L2.4629 51.0771C2.00894 50.6939 1.64411 50.2204 1.39284 49.6883C1.14158 49.1562 1.00969 48.5778 1.00601 47.9919V46.7374C1.26032 47.1182 1.56871 47.4618 1.92194 47.7578L18.3104 61.8092L18.5072 61.9653L20.1669 63.3878L21.8267 61.9653L21.882 61.9173C21.9312 61.9173 21.9742 61.8453 22.0234 61.8092L38.4242 47.7578C38.7687 47.4612 39.0725 47.1223 39.3278 46.7495V47.9859ZM39.3278 44.0544C39.3322 44.8428 39.0992 45.6151 38.6578 46.2753C38.4438 46.6109 38.1784 46.9125 37.8709 47.1696L37.0533 47.8239L21.4701 61.191C21.4319 61.2263 21.3908 61.2584 21.3472 61.287C21.0094 61.5209 20.6056 61.6465 20.1915 61.6465C19.7774 61.6465 19.3736 61.5209 19.0358 61.287L18.8944 61.173L3.2436 47.8239L2.44446 47.1396C2.13653 46.8789 1.86936 46.5756 1.65146 46.2393C1.21394 45.5862 0.981069 44.8228 0.981417 44.0424V12.6623C6.09591 9.78724 12.7718 8.02256 20.0931 7.95653H20.1485C27.4637 8.02256 34.1396 9.75723 39.254 12.6623L39.3278 44.0544Z" fill="#004979"/>
<path d="M34.4223 29.9671C34.4716 28.8208 34.6405 27.6825 34.9264 26.5697C34.9264 26.5697 31.4778 25.2672 31.4778 29.1687C31.4778 32.8362 36.4386 32.554 37.0533 36.6716V31.9718C37.0533 31.9718 34.4039 31.4316 34.4039 29.9671" fill="#004979"/>
<path d="M19.7674 45.5012C19.7674 41.0055 15.4643 33.6587 6.20658 33.6587C6.20658 33.9468 5.96069 34.7991 5.64718 34.7991H3.85834V41.4737L4.42388 40.9155L4.70665 40.6334L10.3744 35.0212C11.5585 35.3722 12.6787 35.9029 13.6939 36.5938L5.77627 42.9863L6.39099 43.7006C6.47565 43.8047 6.51532 43.937 6.50154 44.0693C6.48776 44.2016 6.42163 44.3234 6.31723 44.4088L5.36441 45.2011L5.1554 45.3812L4.73124 45.7353L9.26175 49.6128L10.4297 48.6765C10.5415 48.5819 10.6844 48.5298 10.8324 48.5298C10.9803 48.5298 11.1232 48.5819 11.235 48.6765L12.4645 49.8769L13.6939 48.2083C13.6939 48.2083 11.4686 42.152 16.6937 39.4209C18.0264 41.1518 18.8107 43.226 18.9498 45.3872C18.2413 45.6607 17.6412 46.1487 17.2374 46.7795C16.8336 47.4103 16.6474 48.1509 16.706 48.8925L12.5321 52.3919L20.7386 59.4806V56.8576C20.7418 56.7154 20.8024 56.5801 20.9071 56.4812C21.0119 56.3824 21.1523 56.3278 21.298 56.3294H22.6012L24.6052 51.7556C24.6052 51.7556 19.7674 50.003 19.7674 45.5072" fill="#004979"/>
<path d="M27.8817 51.0771L24.8081 55.4888L36.3649 45.585C36.5835 45.389 36.7577 45.1505 36.8763 44.8848C36.9949 44.6192 37.0552 44.3322 37.0534 44.0424V38.3042C36.2665 42.962 27.8325 45.717 27.8325 51.0831" fill="#004979"/>
<path d="M12.6182 18.0224C13.0116 18.0224 14.2226 17.7223 14.2226 17.4822C14.2226 17.2421 13.8968 16.2457 12.5875 17.098C12.5164 17.1443 12.4659 17.215 12.4461 17.2961C12.3969 17.5302 12.3232 18.0224 12.6182 18.0224Z" fill="#004979"/>
<path d="M25.4781 38.2622C26.5595 39.1606 27.8666 39.7614 29.2648 40.0028C31.6315 40.417 34.7973 39.5047 34.7973 37.5119C34.7973 32.8721 29.6828 34.3607 29.6828 29.1687C29.6828 23.9767 35.4796 22.9503 37.0595 26.5697V13.8628C31.8502 11.3493 26.1188 10.039 20.3083 10.0333C21.173 10.1679 22.0229 10.3809 22.8471 10.6696C23.1422 10.7716 23.4618 10.8796 23.7077 10.9997C27.605 12.6623 30.0148 15.8616 30.0148 19.3249C30.0148 19.3969 30.0148 19.4629 30.0148 19.535C29.5439 18.8706 28.9905 18.2658 28.3673 17.7343C26.099 15.8195 21.7283 13.7788 13.8353 14.9012H13.7676C13.6201 14.9012 13.4849 14.9012 13.3558 14.9012H13.3189C12.1509 14.7631 11.5546 14.0549 11.5546 12.5303C11.5546 12.4342 11.5546 11.6059 11.5546 11.5219C11.5546 11.2818 11.61 11.0897 11.6284 10.9637C8.71641 11.5705 5.89776 12.5451 3.24359 13.8628V31.6956C3.28662 31.6956 14.8803 29.4148 25.4597 38.2622M27.7895 38.7304C27.1554 38.4652 26.5667 38.1069 26.0437 37.6679C21.2365 33.6704 16.7675 31.8997 12.7472 31.1554C14.8087 29.2397 16.6627 27.1217 18.2797 24.835V24.883C18.3289 28.3284 21.0029 29.6369 23.5909 30.8853C25.6748 31.8997 27.8018 32.9441 28.9206 35.087C29.2351 35.7123 29.2966 36.4304 29.0926 37.098C28.8886 37.7656 28.4342 38.3335 27.8202 38.6883M28.4349 33.1182C27.1686 31.7857 25.4904 30.9634 23.9167 30.1951C21.3164 28.9286 19.0665 27.8362 18.9989 24.793C19.0001 24.3103 19.0768 23.8305 19.2264 23.3705C19.294 23.2444 19.3616 23.1244 19.4169 22.9983C19.4807 22.8792 19.5382 22.757 19.5891 22.6322C19.6382 22.5181 19.6813 22.4101 19.7243 22.296C19.7673 22.182 19.8042 22.0619 19.8411 21.9479C19.8396 21.9179 19.8396 21.8879 19.8411 21.8579C19.8694 21.7754 19.892 21.6912 19.9087 21.6058C19.9087 21.4977 19.9579 21.3897 19.9763 21.2876C19.9948 21.1856 19.9763 21.2456 19.9763 21.2216C20.9126 21.8827 21.9499 22.3952 23.05 22.7402C25.1031 23.5445 27.353 24.4329 28.2751 26.2816C27.8399 27.178 27.6172 28.1587 27.6235 29.1507C27.6235 31.2635 28.0046 32.4039 28.4411 33.1842M27.8878 18.3345C28.7418 19.038 29.4457 19.8987 29.9594 20.8675C29.8466 22.4648 29.4077 24.024 28.6685 25.4533C27.5128 23.7006 25.2568 22.8122 23.3266 22.0619C21.55 21.3657 20.0071 20.7655 20.0071 19.7631C19.9876 18.9871 19.7354 18.2337 19.2817 17.5962L19.2264 17.5062C19.1878 17.4375 19.1447 17.3713 19.0973 17.3081C19.0511 17.2347 18.9997 17.1645 18.9436 17.098C18.9143 17.0482 18.8793 17.0019 18.8391 16.96C18.7892 16.8953 18.7358 16.8332 18.6793 16.7739L18.6485 16.7379C18.5712 16.6554 18.4891 16.5772 18.4026 16.5038C18.2427 16.3525 18.0722 16.2121 17.8924 16.0837L17.6097 15.8976L17.3207 15.7355L17.0257 15.5855L16.8228 15.4954L16.5155 15.3814C22.509 15.0212 25.9699 16.7079 27.8694 18.3105M12.4644 15.8195C12.6123 15.7723 12.7647 15.7401 12.9193 15.7235H13.2267H13.7369C14.6344 15.7235 16.9581 15.8976 18.249 17.5962L18.3781 17.7703C18.4837 17.9258 18.5782 18.0882 18.6608 18.2565C18.7529 18.4317 18.829 18.6145 18.8883 18.8027C18.9284 18.9085 18.9612 19.0168 18.9866 19.1268C19.0174 19.2409 19.042 19.3549 19.0665 19.475C19.0911 19.595 19.0665 19.655 19.1157 19.7511C19.1649 19.8471 19.1157 19.8111 19.1157 19.8411C19.1684 20.1069 19.2054 20.3754 19.2264 20.6454C19.2156 21.0931 19.1262 21.5357 18.962 21.9539L18.9313 22.0379C18.8973 22.1406 18.8562 22.2408 18.8084 22.3381C18.7653 22.4401 18.7162 22.5421 18.667 22.6502L18.6117 22.7222C17.9109 23.5685 17.5974 24.0187 16.497 24.1988C15.7594 24.1717 15.0263 24.0732 14.3086 23.9047C13.4712 23.7906 12.6225 23.7785 11.7821 23.8686C11.0997 23.9467 10.19 23.8686 10.19 23.0163C10.184 22.821 10.2533 22.6306 10.3842 22.4828C10.5151 22.3349 10.6981 22.2405 10.8969 22.218C11.6899 22.218 13.9029 23.0583 13.9029 21.9359C13.9029 21.0296 11.8681 21.7198 10.9276 21.7198C9.9871 21.7198 9.93792 21.3117 9.93792 20.5854C9.93792 19.499 10.7248 19.487 10.7248 19.0368C10.7248 18.6947 10.6756 18.5506 10.5834 18.5506C10.3621 18.5506 10.1531 19.535 9.87645 19.535C9.45229 19.535 9.07731 18.7187 9.07731 18.1665C9.07731 17.7163 11.3825 16.3117 12.5198 15.8195" fill="#004979"/>
</svg>
