<svg width="46" height="40" viewBox="0 0 46 40" fill="none" xmlns="http://www.w3.org/2000/svg">
<path d="M40.8035 24.324C40.8035 31.2437 35.1939 36.8533 28.2742 36.8533L9.48034 36.8533C7.5582 36.8533 5.99999 35.2951 5.99999 33.3729L5.99999 9.70656C6 5.86227 9.11641 2.74587 12.9607 2.74587L37.3231 2.74587C39.2453 2.74587 40.8035 4.30407 40.8035 6.22622L40.8035 24.324Z" fill="#00414C"/>
<path d="M24.7356 15.9787C24.5184 15.9787 24.3419 15.8025 24.3419 15.585V14.9158C24.3419 14.6987 24.5181 14.5221 24.7356 14.5221C24.9528 14.5221 25.1294 14.6984 25.1294 14.9158V15.585C25.1294 15.8025 24.9528 15.9787 24.7356 15.9787Z" fill="#FEDD30"/>
<path d="M23.0802 15.9787C22.863 15.9787 22.6865 15.8025 22.6865 15.585V14.9158C22.6865 14.6987 22.8627 14.5221 23.0802 14.5221C23.2974 14.5221 23.474 14.6984 23.474 14.9158V15.585C23.4737 15.8025 23.2977 15.9787 23.0802 15.9787Z" fill="#FEDD30"/>
<path d="M21.4249 15.9787C21.2078 15.9787 21.0312 15.8025 21.0312 15.585V14.9158C21.0312 14.6987 21.2075 14.5221 21.4249 14.5221C21.6421 14.5221 21.8187 14.6984 21.8187 14.9158V15.585C21.8187 15.8025 21.6424 15.9787 21.4249 15.9787Z" fill="#FEDD30"/>
<path d="M24.7356 18.7152C24.5184 18.7152 24.3419 18.5389 24.3419 18.3214V17.6525C24.3419 17.4353 24.5181 17.2588 24.7356 17.2588C24.9528 17.2588 25.1294 17.4351 25.1294 17.6525V18.3214C25.1294 18.5389 24.9528 18.7152 24.7356 18.7152Z" fill="#FEDD30"/>
<path d="M23.0802 18.7152C22.863 18.7152 22.6865 18.5389 22.6865 18.3214V17.6525C22.6865 17.4353 22.8627 17.2588 23.0802 17.2588C23.2974 17.2588 23.474 17.4351 23.474 17.6525V18.3214C23.4737 18.5389 23.2977 18.7152 23.0802 18.7152Z" fill="#FEDD30"/>
<path d="M21.4249 18.7152C21.2078 18.7152 21.0312 18.5389 21.0312 18.3214V17.6525C21.0312 17.4353 21.2075 17.2588 21.4249 17.2588C21.6421 17.2588 21.8187 17.4351 21.8187 17.6525V18.3214C21.8187 18.5389 21.6424 18.7152 21.4249 18.7152Z" fill="#FEDD30"/>
<path d="M24.7356 21.4515C24.5184 21.4515 24.3419 21.2752 24.3419 21.0578V20.3886C24.3419 20.1714 24.5181 19.9949 24.7356 19.9949C24.9528 19.9949 25.1294 20.1712 25.1294 20.3886V21.0578C25.1294 21.2752 24.9528 21.4515 24.7356 21.4515Z" fill="#FEDD30"/>
<path d="M23.0802 21.4515C22.863 21.4515 22.6865 21.2752 22.6865 21.0578V20.3886C22.6865 20.1714 22.8627 19.9949 23.0802 19.9949C23.2974 19.9949 23.474 20.1712 23.474 20.3886V21.0578C23.4737 21.2752 23.2977 21.4515 23.0802 21.4515Z" fill="#FEDD30"/>
<path d="M21.4249 21.4515C21.2078 21.4515 21.0312 21.2752 21.0312 21.0578V20.3886C21.0312 20.1714 21.2075 19.9949 21.4249 19.9949C21.6421 19.9949 21.8187 20.1712 21.8187 20.3886V21.0578C21.8187 21.2752 21.6424 21.4515 21.4249 21.4515Z" fill="#FEDD30"/>
<path d="M24.7356 24.1874C24.5184 24.1874 24.3419 24.0111 24.3419 23.7936V23.1245C24.3419 22.9073 24.5181 22.7307 24.7356 22.7307C24.9528 22.7307 25.1294 22.907 25.1294 23.1245V23.7936C25.1294 24.0111 24.9528 24.1874 24.7356 24.1874Z" fill="#FEDD30"/>
<path d="M23.0802 24.1874C22.863 24.1874 22.6865 24.0111 22.6865 23.7936V23.1245C22.6865 22.9073 22.8627 22.7307 23.0802 22.7307C23.2974 22.7307 23.474 22.907 23.474 23.1245V23.7936C23.4737 24.0111 23.2977 24.1874 23.0802 24.1874Z" fill="#FEDD30"/>
<path d="M21.4249 24.1874C21.2078 24.1874 21.0312 24.0111 21.0312 23.7936V23.1245C21.0312 22.9073 21.2075 22.7307 21.4249 22.7307C21.6421 22.7307 21.8187 22.907 21.8187 23.1245V23.7936C21.8187 24.0111 21.6424 24.1874 21.4249 24.1874Z" fill="#FEDD30"/>
<path d="M24.7356 26.9238C24.5184 26.9238 24.3419 26.7475 24.3419 26.53V25.8612C24.3419 25.644 24.5181 25.4674 24.7356 25.4674C24.9528 25.4674 25.1294 25.6437 25.1294 25.8612V26.53C25.1294 26.7472 24.9528 26.9238 24.7356 26.9238Z" fill="#FEDD30"/>
<path d="M23.0802 26.9238C22.863 26.9238 22.6865 26.7475 22.6865 26.53V25.8612C22.6865 25.644 22.8627 25.4674 23.0802 25.4674C23.2974 25.4674 23.474 25.6437 23.474 25.8612V26.53C23.4737 26.7472 23.2977 26.9238 23.0802 26.9238Z" fill="#FEDD30"/>
<path d="M21.4249 26.9238C21.2078 26.9238 21.0312 26.7475 21.0312 26.53L21.0315 25.8612C21.0315 25.644 21.2077 25.4674 21.4252 25.4674C21.6424 25.4674 21.819 25.6437 21.819 25.8612V26.53C21.8187 26.7472 21.6424 26.9238 21.4249 26.9238V26.9238Z" fill="#FEDD30"/>
<path d="M10.1767 29.647C10.1767 29.8642 10.353 30.0407 10.5705 30.0407H34.5485C34.7657 30.0407 34.9422 29.8644 34.9422 29.647C34.9422 29.4298 34.766 29.2532 34.5485 29.2532H33.8206V17.9481C33.8206 17.731 33.6443 17.5544 33.4269 17.5544L26.9982 17.5547V9.40431C26.9982 9.26647 26.9262 9.13907 26.8087 9.06767C26.6915 8.99601 26.5448 8.99162 26.4229 9.05504L19.114 12.8604C18.9835 12.9283 18.9023 13.0628 18.9023 13.2097V20.3289H11.8288C11.6116 20.3289 11.435 20.5052 11.435 20.7226V29.2533H10.5696C10.3524 29.253 10.1764 29.4293 10.1764 29.6468L10.1767 29.647ZM26.9983 23.5181H33.0335V29.2535L26.9983 29.2533V23.5181ZM26.9983 20.7819H33.0335V22.7309L26.9983 22.7307V20.7819ZM26.9983 18.3418H33.0335V19.995H26.9983V18.3418ZM19.6893 13.4488L26.2106 10.0533V29.2529H19.6893V13.4488ZM14.169 26.1084C14.169 25.2912 14.8164 24.6262 15.6124 24.6262C16.4084 24.6262 17.0561 25.291 17.0561 26.1084V29.2534H14.169V26.1084ZM12.2225 21.1163H18.9021V29.2533H17.8436V26.1083C17.8436 24.857 16.8431 23.8389 15.6124 23.8389C14.3823 23.8389 13.3818 24.8567 13.3818 26.1083V29.2533H12.2225V21.1163Z" fill="#FEDD30"/>
</svg>
