<svg width="301" height="297" viewBox="0 0 301 297" fill="none" xmlns="http://www.w3.org/2000/svg">
<path opacity="0.63" d="M205.945 29.5556C174.09 8.84139 129.324 13.0275 101.162 43.7741C85.7649 60.5909 79.5108 83.7229 63.5282 100.179C45.534 118.728 24.0288 136.735 15.8729 161.997C7.20501 188.846 14.8123 219.628 34.1963 240.162C57.7862 265.135 92.4579 257.629 125.228 257.232C259.416 255.572 359.152 167.193 232.242 58.2452C221.636 49.0789 216.479 36.3761 205.945 29.5556Z" fill="#FFFACC"/>
<path d="M266.072 43.8823H39.6823C35.1472 43.8823 31.4532 47.4911 31.4532 51.9659V205.807H274.301V51.9659C274.301 47.4911 270.607 43.8823 266.072 43.8823Z" fill="#3D3D3D"/>
<path d="M265.78 47.2747H39.9748C37.1587 47.2747 34.8911 49.5121 34.8911 52.2908V203.533H270.863V52.2908C270.863 49.5121 268.596 47.2747 265.78 47.2747Z" fill="#4D4D4D"/>
<path d="M43.3762 58.4617H262.378V198.156H43.3762V58.4617Z" fill="#3D3D3D"/>
<path d="M154.121 53.5539C154.121 54.2395 153.572 54.7809 152.877 54.7809C152.182 54.7809 151.634 54.2395 151.634 53.5539C151.634 52.8682 152.182 52.3269 152.877 52.3269C153.572 52.363 154.121 52.9043 154.121 53.5539Z" fill="#F6F6F6"/>
<path d="M70.8429 66.1844H92.787V70.0097H70.8429V66.1844Z" fill="#F5E438"/>
<path d="M51.02 66.1844H60.0537V70.0097H51.02V66.1844ZM51.02 73.1854H60.0537V77.0107H51.02V73.1854ZM51.02 81.4855H60.0537V85.3108H51.02V81.4855ZM51.02 89.7496H60.0537V93.5748H51.02V89.7496ZM51.02 98.0497H60.0537V101.875H51.02V98.0497ZM51.02 106.314H60.0537V110.139H51.02V106.314ZM97.3221 66.1844H170.945V70.0097H97.3221V66.1844Z" fill="#FFFACC"/>
<path d="M78.5965 73.1854H100.541V77.0107H78.5965V73.1854Z" fill="#F5E438"/>
<path d="M105.076 73.1854H178.698V77.0107H105.076V73.1854Z" fill="#FFFACC"/>
<path d="M91.5435 81.4856H113.488V85.3109H91.5435V81.4856Z" fill="#F5E438"/>
<path d="M118.023 81.4856H191.645V85.3109H118.023V81.4856Z" fill="#FFFACC"/>
<path d="M104.454 89.7495H126.398V93.5748H104.454V89.7495Z" fill="#F5E438"/>
<path d="M130.933 89.7495H204.556V93.5748H130.933V89.7495Z" fill="#FFFACC"/>
<path d="M91.5435 98.0497H113.488V101.875H91.5435V98.0497Z" fill="#F5E438"/>
<path d="M118.023 98.0497H230.413V101.875H118.023V98.0497Z" fill="#FFFACC"/>
<path d="M78.5965 106.314H100.541V110.139H78.5965V106.314Z" fill="#F5E438"/>
<path d="M105.076 106.314H152.877V110.139H105.076V106.314Z" fill="#FFFACC"/>
<path opacity="0.4" d="M70.8429 117.176H92.787V121.001H70.8429V117.176Z" fill="#F5E438"/>
<path opacity="0.4" d="M51.02 117.176H60.0537V121.001H51.02V117.176ZM51.02 124.177H60.0537V128.002H51.02V124.177ZM51.02 132.477H60.0537V136.302H51.02V132.477ZM51.02 140.741H60.0537V144.566H51.02V140.741ZM51.02 149.041H60.0537V152.867H51.02V149.041ZM51.02 157.305H60.0537V161.131H51.02V157.305ZM97.3221 117.176H170.945V121.001H97.3221V117.176Z" fill="#FFFACC"/>
<path opacity="0.4" d="M78.5965 124.177H100.541V128.002H78.5965V124.177Z" fill="#F5E438"/>
<path opacity="0.4" d="M105.076 124.177H178.698V128.002H105.076V124.177Z" fill="#FFFACC"/>
<path opacity="0.4" d="M91.5435 132.477H113.488V136.302H91.5435V132.477Z" fill="#F5E438"/>
<path opacity="0.4" d="M118.023 132.477H191.645V136.302H118.023V132.477Z" fill="#FFFACC"/>
<path opacity="0.4" d="M70.8429 168.132H92.787V171.957H70.8429V168.132Z" fill="#F5E438"/>
<path opacity="0.4" d="M51.02 168.132H60.0537V171.957H51.02V168.132ZM51.02 175.169H60.0537V178.994H51.02V175.169ZM51.02 183.433H60.0537V187.258H51.02V183.433ZM97.3221 168.132H170.945V171.957H97.3221V168.132Z" fill="#FFFACC"/>
<path opacity="0.4" d="M78.5965 175.169H100.541V178.994H78.5965V175.169Z" fill="#F5E438"/>
<path opacity="0.4" d="M105.076 175.169H178.698V178.994H105.076V175.169Z" fill="#FFFACC"/>
<path opacity="0.4" d="M91.5435 183.433H113.488V187.258H91.5435V183.433Z" fill="#F5E438"/>
<path opacity="0.4" d="M118.023 183.433H191.645V187.258H118.023V183.433Z" fill="#FFFACC"/>
<path opacity="0.4" d="M104.454 140.741H126.398V144.566H104.454V140.741Z" fill="#F5E438"/>
<path opacity="0.4" d="M130.933 140.741H243.324V144.566H130.933V140.741Z" fill="#FFFACC"/>
<path opacity="0.4" d="M91.5435 149.041H113.488V152.867H91.5435V149.041Z" fill="#F5E438"/>
<path opacity="0.4" d="M118.023 149.041H191.645V152.867H118.023V149.041Z" fill="#FFFACC"/>
<path opacity="0.4" d="M78.5965 157.305H100.541V161.131H78.5965V157.305Z" fill="#F5E438"/>
<path opacity="0.4" d="M105.076 157.305H178.698V161.131H105.076V157.305Z" fill="#FFFACC"/>
<path d="M290.43 203.064H15.3243C13.7516 203.064 12.435 204.327 12.435 205.915V209.596C12.435 211.148 13.7151 212.447 15.3243 212.447H290.467C292.039 212.447 293.356 211.184 293.356 209.596V205.915C293.32 204.327 292.039 203.064 290.43 203.064Z" fill="#A9A9A9"/>
<path d="M176.467 207.142H129.287C128.666 207.142 128.154 207.647 128.154 208.261C128.154 208.874 128.666 209.38 129.287 209.38H176.504C177.125 209.38 177.638 208.874 177.638 208.261C177.601 207.647 177.089 207.142 176.467 207.142Z" fill="white"/>
<path d="M215.272 243.591L215.235 249.401C215.235 249.401 215.967 253.118 216.588 257.087C217.173 261.057 217.649 265.279 217.027 266.253C215.82 268.202 213.443 266.253 213.041 264.305C212.638 262.356 212.053 250.195 212.053 250.195L211.651 242.364L215.272 243.591ZM221.27 242.797L220.355 248.029C220.355 248.029 218.563 262.32 219.551 264.485C220.538 266.65 223.72 265.676 223.537 262.717C223.354 259.794 224.122 249.401 224.122 249.401L225.915 243.121L221.27 242.797Z" fill="#3D3D3D"/>
<path d="M218.819 179.102L218.38 185.526L235.204 193.537C238.24 195.161 239.703 198.662 238.715 201.909L227.085 244.601L221.306 242.797L226.39 203.533C226.756 201.116 225.073 198.878 222.623 198.481L216.625 197.543L210.261 191.119L217.649 197.651C219.441 199.239 220.319 201.585 219.99 203.93L215.272 243.59L210.042 244.89L207.701 205.879C207.518 203.389 205.836 201.296 203.458 200.538L193.108 197.29C191.462 196.316 190.438 194.548 190.365 192.635L190.804 178.886L218.819 179.102Z" fill="#3D3D3D"/>
<path d="M189.707 193.501L192.486 140.164C192.486 140.164 203.97 139.478 207.408 139.478C209.274 139.478 212.455 140.344 214.979 141.138C217.356 141.896 219.295 141.824 220.465 143.989L239.3 179.644L227.707 180.726L223.83 176.396L225.805 173.473L218.746 157.089L220.136 186.861L189.707 193.501Z" fill="#F5E438"/>
<path opacity="0.08" d="M219.002 150.593L231.51 172.859L227.634 177.37C227.634 177.37 226.061 177.695 224.561 177.189L223.866 176.396L225.841 173.472L218.783 157.089L219.002 150.593Z" fill="black"/>
<path d="M207.884 155.609C204.08 155.609 197.131 145.829 197.131 142.076C197.131 141.319 197.278 140.597 197.497 139.911C201.045 139.731 205.47 139.514 207.408 139.514C208.25 139.514 209.347 139.695 210.554 139.947C210.773 140.633 210.919 141.319 210.919 142.076C210.883 145.829 211.687 155.609 207.884 155.609Z" fill="white"/>
<path opacity="0.08" d="M191.097 149.402L189.707 193.826L208.286 189.423L191.097 149.402Z" fill="black"/>
<path d="M208.542 134.029C208.213 134.679 205.945 143.412 205.945 143.412C205.945 143.412 205.141 144.855 203.202 144.675C201.264 144.53 200.459 141.824 200.459 141.824L203.861 130.853L208.542 134.029Z" fill="#FCF5B1"/>
<path d="M196.619 128.652C196.619 134.679 203.093 141.355 209.2 141.355C215.308 141.355 218.71 134.679 218.71 128.652C218.71 122.625 213.772 117.753 207.664 117.753C201.557 117.717 196.619 122.625 196.619 128.652Z" fill="#FFF9BC"/>
<path d="M209.917 141.635C216.695 140.545 221.294 134.24 220.189 127.551C219.084 120.863 212.693 116.325 205.915 117.416C199.137 118.506 194.538 124.812 195.643 131.5C196.748 138.188 203.139 142.726 209.917 141.635Z" fill="#FFFACA"/>
<path d="M205.58 188.377C206.055 188.232 210.151 186.247 213.041 186.247C215.93 186.247 219.478 189.279 219.478 189.279C219.478 189.279 219.953 190.867 218.015 190.542C216.076 190.217 218.271 191.733 218.271 191.733C218.271 191.733 218.161 191.805 215.893 192.13C213.626 192.455 204.848 191.985 204.848 191.985L205.58 188.377Z" fill="#FFFACA"/>
<path d="M192.486 140.2L190.914 175.277L205.543 188.341L204.848 192.022L184.257 181.159C182.282 180.113 181.149 177.947 181.441 175.746L185.208 148.897C185.501 145.541 187.586 142.582 190.621 141.102L192.486 140.2ZM204.08 195.017H241.312V192.31H204.08C203.312 192.31 202.727 192.924 202.727 193.646C202.69 194.403 203.312 195.017 204.08 195.017Z" fill="#F5E438"/>
<path d="M214.284 195.017H250.199C251.772 195.017 253.162 193.97 253.601 192.455L259.928 168.889C260.513 166.688 258.831 164.559 256.527 164.559H225.183C223.61 164.559 222.221 165.605 221.782 167.121L214.284 195.017Z" fill="#F5E438"/>
<path opacity="0.22" d="M214.284 195.017H250.199C251.772 195.017 253.162 193.97 253.601 192.455L259.928 168.889C260.513 166.688 258.831 164.559 256.527 164.559H225.183C223.61 164.559 222.221 165.605 221.782 167.121L214.284 195.017Z" fill="white"/>
<path d="M235.424 181.881C235.021 183.433 236.009 184.66 237.618 184.66C239.227 184.66 240.837 183.397 241.239 181.881C241.641 180.329 240.654 179.102 239.044 179.102C237.435 179.066 235.826 180.329 235.424 181.881Z" fill="white"/>
<path d="M207.92 117.248C214.321 117.248 219.551 122.012 220.282 128.111C218.124 129.698 215.308 130.384 212.638 129.951C209.493 129.41 206.677 127.281 205.36 124.43C205.47 125.801 205.543 127.172 205.324 128.508C205.104 129.843 204.519 131.178 203.422 132.044C203.349 131.106 203.239 130.095 202.764 129.265C202.252 128.435 201.191 127.858 200.313 128.219C199.655 128.471 199.252 129.121 199.143 129.807C199.033 130.492 199.216 131.178 199.472 131.828C199.874 132.838 200.459 133.776 201.191 134.534C199.728 134.751 198.155 134.931 196.692 134.787C195.924 133.163 195.449 131.395 195.449 129.482C195.449 122.734 201.045 117.248 207.92 117.248Z" fill="#8F8F8F"/>
<path d="M197.204 131.539C197.204 133.596 198.887 135.256 200.971 135.256C203.056 135.256 204.738 133.596 204.738 131.539C204.738 129.482 203.056 127.822 200.971 127.822C198.923 127.822 197.204 129.482 197.204 131.539ZM221.27 242.797L220.611 246.73L224.561 247.957L225.659 244.096L221.27 242.797ZM215.235 247.957L211.943 248.571L211.761 244.457L215.272 243.591L215.235 247.957Z" fill="#FFFACA"/>
<path d="M200.971 122.914C204.042 122.914 206.531 120.458 206.531 117.429C206.531 114.399 204.042 111.943 200.971 111.943C197.901 111.943 195.412 114.399 195.412 117.429C195.412 120.458 197.901 122.914 200.971 122.914Z" fill="#8F8F8F"/>
</svg>
