<svg width="28" height="46" viewBox="0 0 28 46" fill="none" xmlns="http://www.w3.org/2000/svg">
<path d="M13.9892 3.78736C15.8425 3.8149 17.6887 4.01702 19.5014 4.39083L20.2158 4.54066V2.34319C20.1767 1.85289 19.9517 1.39384 19.5839 1.05428C19.2162 0.714725 18.7316 0.518611 18.2234 0.503637H17.6425V1.48168C17.0487 1.39428 16.4377 1.31937 15.7578 1.26942V0.308029L15.3275 0.187334C14.4569 -0.0624448 13.5301 -0.0624448 12.6596 0.187334L12.2293 0.308029V1.26942C11.5494 1.31937 10.9384 1.39428 10.3445 1.48168V0.499475H9.77223C9.28212 0.516648 8.814 0.700552 8.45033 1.01879C8.08666 1.33703 7.85077 1.76919 7.78422 2.23914V4.5365L8.49422 4.38667C10.3015 4.01519 12.1418 3.81448 13.9892 3.78736ZM8.39525 2.34319C8.43455 2.00506 8.59672 1.69143 8.85285 1.45818C9.10898 1.22494 9.44242 1.08725 9.79375 1.06965V2.14342C10.7807 1.97898 11.7762 1.86644 12.7758 1.8063H12.8532V0.73254C13.6137 0.51057 14.425 0.51057 15.1855 0.73254V1.80214H15.2672C16.2654 1.86252 17.2594 1.97505 18.245 2.13925V1.06965C18.597 1.08629 18.9315 1.22355 19.1885 1.45689C19.4455 1.69022 19.6083 2.00439 19.6477 2.34319V3.8373C17.7896 3.45448 15.8974 3.24681 13.9978 3.21718C12.1069 3.24815 10.2234 3.45583 8.37374 3.8373L8.39525 2.34319Z" fill="#131313"/>
<path d="M27.6902 8.22403C23.9035 6.11812 19.0453 4.93199 14.0194 4.89453H13.9763C8.95036 4.94031 4.0793 6.14309 0.327032 8.22403H0.296911L0 8.37802V33.2328C0.00371681 33.7185 0.11422 34.198 0.324175 34.6393C0.53413 35.0805 0.838733 35.4736 1.21777 35.7923L12.7026 45.5394C13.0625 45.8367 13.5203 46 13.9935 46C14.4668 46 14.9246 45.8367 15.2845 45.5394L26.7822 35.7923C27.1619 35.4741 27.467 35.0812 27.677 34.6398C27.887 34.1984 27.9971 33.7187 28 33.2328V8.38219L27.6902 8.22403ZM27.4105 33.2328C27.4085 33.6397 27.3165 34.0416 27.1406 34.4113C26.9647 34.781 26.709 35.11 26.3907 35.3761L14.9101 45.1191C14.6556 45.3287 14.3322 45.4439 13.9978 45.4439C13.6635 45.4439 13.3401 45.3287 13.0856 45.1191L1.60504 35.3761C1.28727 35.1104 1.03189 34.7821 0.856002 34.4132C0.680116 34.0442 0.587792 33.6432 0.585216 33.2369V32.3671C0.763233 32.6311 0.979106 32.8693 1.22637 33.0746L12.6983 42.8176L12.836 42.9258L13.9978 43.9121L15.1597 42.9258L15.1984 42.8925C15.2328 42.8925 15.2629 42.8425 15.2974 42.8176L26.7779 33.0746C27.0191 32.869 27.2317 32.6339 27.4105 32.3754V33.2328ZM27.4105 30.5067C27.4136 31.0534 27.2505 31.5889 26.9414 32.0466C26.7917 32.2793 26.6059 32.4885 26.3907 32.6667L25.8184 33.1204L14.9101 42.3889C14.8833 42.4133 14.8546 42.4356 14.824 42.4555C14.5876 42.6177 14.3049 42.7048 14.0151 42.7048C13.7252 42.7048 13.4425 42.6177 13.2061 42.4555L13.1071 42.3764L2.15153 33.1204L1.59213 32.6459C1.37658 32.4652 1.18956 32.2548 1.03704 32.0217C0.730767 31.5689 0.56776 31.0395 0.568004 30.4984V8.74011C4.14815 6.74657 8.82127 5.52297 13.9462 5.47719H13.9849C19.1056 5.52297 23.7787 6.72576 27.3588 8.74011L27.4105 30.5067Z" fill="#131313"/>
<path d="M23.9766 20.7387C24.0112 19.9439 24.1294 19.1546 24.3295 18.383C24.3295 18.383 21.9155 17.4799 21.9155 20.1851C21.9155 22.7281 25.388 22.5324 25.8183 25.3875V22.1287C25.8183 22.1287 23.9637 21.7542 23.9637 20.7387" fill="#131313"/>
<path d="M13.7182 31.5097C13.7182 28.3925 10.706 23.2983 4.22562 23.2983C4.22562 23.4981 4.0535 24.0891 3.83405 24.0891H2.58186V28.7171L2.97774 28.3301L3.17568 28.1344L7.1431 24.2431C7.97199 24.4864 8.75613 24.8544 9.46675 25.3335L3.92441 29.7659L4.35472 30.2612C4.41398 30.3334 4.44174 30.4251 4.4321 30.5169C4.42245 30.6086 4.37616 30.6931 4.30308 30.7523L3.6361 31.3016L3.4898 31.4265L3.19289 31.672L6.36424 34.3606L7.18183 33.7114C7.26006 33.6458 7.36013 33.6097 7.46367 33.6097C7.56722 33.6097 7.66729 33.6458 7.74553 33.7114L8.60614 34.5437L9.46675 33.3867C9.46675 33.3867 7.90904 29.1874 11.5666 27.2937C12.4995 28.4939 13.0485 29.9321 13.1459 31.4306C12.6499 31.6203 12.2299 31.9587 11.9472 32.3961C11.6646 32.8335 11.5342 33.3469 11.5752 33.8612L8.65347 36.2876L14.3981 41.2027V39.384C14.4003 39.2854 14.4427 39.1916 14.516 39.123C14.5893 39.0545 14.6877 39.0166 14.7896 39.0178H15.7019L17.1047 35.8464C17.1047 35.8464 13.7182 34.6311 13.7182 31.5139" fill="#131313"/>
<path d="M19.3982 35.376L17.2467 38.435L25.3364 31.5679C25.4895 31.432 25.6114 31.2666 25.6944 31.0824C25.7774 30.8982 25.8197 30.6992 25.8184 30.4983V26.5195C25.2676 29.7491 19.3638 31.6595 19.3638 35.3802" fill="#131313"/>
<path d="M8.71378 12.4565C8.98918 12.4565 9.83688 12.2484 9.83688 12.082C9.83688 11.9155 9.60882 11.2246 8.69227 11.8156C8.64253 11.8477 8.60718 11.8967 8.5933 11.953C8.55887 12.1153 8.50724 12.4565 8.71378 12.4565Z" fill="#010101"/>
<path d="M17.7157 26.4905C18.4727 27.1135 19.3876 27.5301 20.3664 27.6975C22.0231 27.9847 24.2391 27.3521 24.2391 25.9703C24.2391 22.7532 20.659 23.7853 20.659 20.1853C20.659 16.5853 24.7168 15.8736 25.8226 18.3832V9.57251C22.1762 7.8297 18.1642 6.9212 14.0968 6.91724C14.7021 7.01054 15.2971 7.15823 15.874 7.3584C16.0805 7.42915 16.3043 7.50406 16.4764 7.5873C19.2045 8.74014 20.8913 10.9584 20.8913 13.3598C20.8913 13.4098 20.8913 13.4555 20.8913 13.5055C20.5617 13.0448 20.1744 12.6255 19.7381 12.2569C18.1503 10.9293 15.0908 9.51425 9.5657 10.2925H9.51836C9.41509 10.2925 9.32042 10.2925 9.23006 10.2925H9.20424C8.38666 10.1968 7.96926 9.70569 7.96926 8.64858C7.96926 8.58199 7.96926 8.00765 7.96926 7.94938C7.96926 7.78291 8.00799 7.64973 8.0209 7.56233C5.9825 7.98307 4.00945 8.65882 2.15153 9.57251V21.9375C2.18165 21.9375 10.2972 20.3559 17.7028 26.4905M19.3336 26.8152C18.8898 26.6313 18.4777 26.3829 18.1116 26.0785C14.7466 23.3067 11.6183 22.079 8.80405 21.5629C10.2471 20.2345 11.5449 18.766 12.6768 17.1804V17.2137C12.7112 19.6026 14.5831 20.5099 16.3946 21.3756C17.8534 22.079 19.3422 22.8031 20.1254 24.2889C20.3456 24.7225 20.3886 25.2205 20.2458 25.6834C20.1031 26.1463 19.785 26.54 19.3552 26.786M19.7855 22.9238C18.899 21.9999 17.7243 21.4297 16.6227 20.897C14.8025 20.0188 13.2276 19.2614 13.1803 17.1513C13.181 16.8166 13.2347 16.4839 13.3395 16.1649C13.3868 16.0775 13.4341 15.9943 13.4729 15.9069C13.5175 15.8243 13.5577 15.7396 13.5934 15.653C13.6278 15.5739 13.6579 15.499 13.688 15.42C13.7181 15.3409 13.744 15.2576 13.7698 15.1786C13.7687 15.1578 13.7687 15.1369 13.7698 15.1161C13.7896 15.059 13.8054 15.0006 13.8171 14.9413C13.8171 14.8664 13.8515 14.7915 13.8645 14.7208C13.8774 14.65 13.8645 14.6916 13.8645 14.675C14.5198 15.1333 15.246 15.4887 16.016 15.7279C17.4532 16.2856 19.0281 16.9016 19.6736 18.1834C19.3689 18.805 19.213 19.485 19.2175 20.1728C19.2175 21.6378 19.4842 22.4286 19.7898 22.9696M19.4025 12.6731C20.0003 13.1609 20.493 13.7577 20.8526 14.4294C20.7737 15.537 20.4664 16.6181 19.949 17.6091C19.14 16.3938 17.5608 15.7779 16.2096 15.2576C14.966 14.7749 13.886 14.3587 13.886 13.6636C13.8723 13.1256 13.6958 12.6032 13.3782 12.1612L13.3395 12.0988C13.3125 12.0511 13.2823 12.0053 13.2491 11.9614C13.2168 11.9105 13.1808 11.8619 13.1415 11.8158C13.1211 11.7812 13.0965 11.7491 13.0684 11.72C13.0334 11.6752 12.9961 11.6321 12.9565 11.591L12.935 11.5661C12.8809 11.5088 12.8234 11.4546 12.7629 11.4037C12.6509 11.2988 12.5315 11.2015 12.4057 11.1124L12.2078 10.9834L12.0055 10.871L11.799 10.767L11.657 10.7045L11.4418 10.6255C15.6373 10.3758 18.0599 11.5452 19.3896 12.6565M8.60611 10.9293C8.7096 10.8965 8.81631 10.8742 8.92454 10.8627H9.13969H9.49685C10.1251 10.8627 11.7516 10.9834 12.6553 12.1612L12.7457 12.2819C12.8196 12.3897 12.8857 12.5024 12.9436 12.619C13.0081 12.7405 13.0613 12.8672 13.1028 12.9977C13.1309 13.0711 13.1539 13.1462 13.1717 13.2225C13.1932 13.3016 13.2104 13.3806 13.2276 13.4639C13.2448 13.5471 13.2276 13.5887 13.262 13.6553C13.2964 13.7219 13.262 13.6969 13.262 13.7177C13.2989 13.902 13.3248 14.0883 13.3395 14.2754C13.3319 14.5859 13.2693 14.8928 13.1544 15.1827L13.1329 15.241C13.1091 15.3121 13.0804 15.3817 13.0469 15.4491C13.0167 15.5198 12.9823 15.5906 12.9479 15.6655L12.9092 15.7154C12.4186 16.3023 12.1992 16.6144 11.4289 16.7393C10.9126 16.7205 10.3994 16.6522 9.89703 16.5353C9.31085 16.4563 8.71679 16.4479 8.12847 16.5104C7.65084 16.5645 7.01398 16.5104 7.01398 15.9194C7.00982 15.7839 7.05835 15.6519 7.14998 15.5494C7.24161 15.4469 7.36967 15.3814 7.50884 15.3658C8.06393 15.3658 9.61303 15.9485 9.61303 15.1702C9.61303 14.5418 8.18872 15.0204 7.53035 15.0204C6.87198 15.0204 6.83756 14.7374 6.83756 14.2338C6.83756 13.4805 7.38835 13.4722 7.38835 13.1601C7.38835 12.9228 7.35392 12.8229 7.28938 12.8229C7.13447 12.8229 6.98816 13.5055 6.79453 13.5055C6.49762 13.5055 6.23513 12.9395 6.23513 12.5566C6.23513 12.2444 7.84878 11.2706 8.64484 10.9293" fill="#060606"/>
</svg>
