<svg width="46" height="42" viewBox="0 0 46 42" fill="none" xmlns="http://www.w3.org/2000/svg">
<path d="M40.241 22.324C40.241 29.2437 34.6315 34.8533 27.7118 34.8533L8.91791 34.8533C6.99576 34.8533 5.43756 33.2951 5.43756 31.3729L5.43756 7.70656C5.43756 3.86227 8.55397 0.745866 12.3983 0.745866L36.7607 0.745868C38.6828 0.745869 40.241 2.30407 40.241 4.22622L40.241 22.324Z" fill="#00414C"/>
<path d="M22.4317 9.57922C20.3485 9.57922 18.6526 11.2907 18.6526 13.3828C18.6526 14.7062 19.3322 15.8748 20.3584 16.556C19.1189 16.9704 18.0464 17.745 17.2598 18.7584C16.8248 18.4238 16.3389 18.1548 15.815 17.962C16.6094 17.3722 17.1286 16.4248 17.1286 15.36C17.1286 13.5857 15.6935 12.1332 13.9299 12.1332C12.1663 12.1332 10.7313 13.5857 10.7313 15.36C10.7313 16.4255 11.2508 17.3733 12.0459 17.9631C9.94093 18.7398 8.43756 20.7735 8.43756 23.167V24.8482C8.43778 24.9764 8.48904 25.0992 8.57995 25.1894C8.67085 25.2799 8.79385 25.3303 8.92202 25.3299H16.2982C16.3161 25.3318 16.334 25.3329 16.3519 25.3327H28.512C28.5298 25.3329 28.5479 25.3318 28.5656 25.3299H35.9424C36.2076 25.3288 36.4223 25.1136 36.423 24.8482V23.167C36.423 20.7735 34.9222 18.7398 32.8183 17.9628C33.6134 17.3733 34.1329 16.4252 34.1329 15.3598C34.1329 13.5855 32.6979 12.1329 30.9343 12.1329C29.1708 12.1329 27.7357 13.5855 27.7357 15.3598C27.7357 16.4246 28.255 17.3722 29.0494 17.9618C28.5245 18.155 28.0383 18.4249 27.6028 18.7603C26.8165 17.7463 25.7455 16.9707 24.506 16.556C25.532 15.8748 26.2119 14.7062 26.2119 13.3828C26.2119 11.2907 24.5151 9.57922 22.4318 9.57922H22.4317ZM22.4317 10.5443C23.9898 10.5443 25.2458 11.8087 25.2458 13.3828C25.2458 14.9445 24.0094 16.1967 22.4686 16.2167C22.4563 16.2167 22.4442 16.215 22.4317 16.215C22.4192 16.215 22.4074 16.2167 22.3949 16.2167C20.8541 16.1969 19.6184 14.9445 19.6184 13.3828C19.6184 11.8085 20.8734 10.5443 22.4315 10.5443H22.4317ZM13.93 13.0982C15.1662 13.0982 16.1636 14.1015 16.1636 15.36C16.1636 16.61 15.1791 17.6091 13.9545 17.6227C13.9463 17.6227 13.9384 17.6218 13.93 17.6218C13.9218 17.6218 13.9138 17.6227 13.9054 17.6227C12.6808 17.6091 11.6963 16.6098 11.6963 15.36C11.6963 14.1016 12.6937 13.0982 13.9299 13.0982H13.93ZM30.934 13.0982C32.1703 13.0982 33.1676 14.1015 33.1676 15.36C33.1676 16.61 32.1832 17.6091 30.9586 17.6227C30.9504 17.6227 30.9424 17.6218 30.934 17.6218C30.9258 17.6218 30.9178 17.6227 30.9094 17.6227C29.6848 17.6091 28.7004 16.6098 28.7004 15.36C28.7004 14.1016 29.6977 13.0982 30.934 13.0982H30.934ZM22.3948 17.1817C22.407 17.1819 22.4191 17.1834 22.4316 17.1834C22.4439 17.1834 22.4559 17.1817 22.4684 17.1817C25.5585 17.2015 28.0315 19.6958 28.0315 22.8181L28.0313 24.3674H16.8324V22.8181C16.8324 19.6955 19.3047 17.2016 22.3943 17.1817H22.3948ZM13.893 18.5888C13.9053 18.589 13.9174 18.5905 13.9299 18.5905C13.9424 18.5905 13.9542 18.5888 13.9667 18.5888C15.0119 18.5972 15.9657 18.9576 16.7252 19.5605C16.1817 20.5221 15.8674 21.6321 15.8674 22.8184V24.3639H9.40221V23.1669C9.40221 20.6293 11.3974 18.6086 13.8929 18.5886L13.893 18.5888ZM30.8971 18.5888C30.9096 18.589 30.9214 18.5905 30.9339 18.5905C30.9464 18.5905 30.9582 18.5888 30.9707 18.5888C33.4663 18.6086 35.4614 20.6296 35.4614 23.1671V24.3639H28.9929L28.9927 22.8184C28.9927 21.6328 28.6793 20.5236 28.1368 19.5622C28.8966 18.9584 29.8511 18.5972 30.8971 18.5888H30.8971Z" fill="#FEDD30"/>
</svg>
