<svg width="47" height="40" viewBox="0 0 47 40" fill="none" xmlns="http://www.w3.org/2000/svg">
<path d="M41.3658 26.824C41.3658 33.7437 35.7563 39.3533 28.8366 39.3533L10.0427 39.3533C8.12057 39.3533 6.56237 37.7951 6.56237 35.8729L6.56237 12.2066C6.56237 8.36227 9.67878 5.24587 13.5231 5.24587L37.8855 5.24587C39.8076 5.24587 41.3658 6.80407 41.3658 8.72622L41.3658 26.824Z" fill="#00414C"/>
<path d="M26.2693 21.7041C26.1017 21.7041 25.9461 21.6581 25.8079 21.5839V21.5859C25.8079 21.8496 25.7054 22.0972 25.5194 22.2827C25.3334 22.4687 25.086 22.5712 24.8226 22.5712C24.6525 22.5712 24.4949 22.5239 24.3552 22.4479C24.3411 22.6891 24.2447 22.9146 24.0726 23.0868C23.8867 23.2727 23.6392 23.3752 23.3756 23.3752C22.852 23.3752 22.4268 22.9636 22.3961 22.4477C22.2341 22.5353 22.0509 22.5812 21.862 22.569C21.3469 22.5353 20.9435 22.0902 20.9435 21.5556V17.1239L20.4388 17.9982C20.2466 18.3325 19.8868 18.5402 19.4995 18.5402C19.3107 18.5402 19.1243 18.4906 18.9591 18.396C18.7535 18.2768 18.6064 18.0854 18.5452 17.8564C18.4837 17.6274 18.5155 17.3878 18.6344 17.1824C18.6346 17.1824 20.2855 14.3235 20.3862 14.1479C20.3982 14.1215 20.4323 14.0449 20.4613 13.9797C20.489 13.9173 20.5128 13.8534 20.5356 13.7891C21.0335 12.3835 22.2662 11.5104 23.753 11.5104C25.6837 11.5104 27.2544 13.2137 27.2544 15.3072L27.2545 20.7187C27.2545 20.9821 27.1522 21.2295 26.9664 21.4157C26.7804 21.6017 26.533 21.7042 26.2693 21.7042L26.2693 21.7041ZM23.753 12.034C22.4755 12.034 21.4573 12.7556 21.0291 13.9642C21.0017 14.0409 20.9732 14.1177 20.9399 14.1925C20.8433 14.4091 20.8433 14.4091 20.8161 14.4403L20.8124 14.4371C20.6776 14.6915 20.2772 15.385 19.0877 17.4444C19.0389 17.5289 19.0259 17.627 19.0508 17.7208C19.0761 17.8146 19.1366 17.8936 19.2204 17.942C19.4805 18.0914 19.8367 17.995 19.9849 17.7367L20.9786 16.0164C21.0379 15.9139 21.158 15.8635 21.2731 15.8947C21.3876 15.9254 21.4671 16.0292 21.4671 16.1476V21.5557C21.4671 21.8109 21.6596 22.0311 21.8963 22.0467C22.0327 22.0539 22.16 22.0082 22.2556 21.9127C22.3425 21.8258 22.3904 21.71 22.3904 21.5862V18.0492C22.3904 17.9046 22.5077 17.7873 22.6523 17.7873C22.7969 17.7873 22.9142 17.9044 22.9142 18.0492L22.914 22.3902C22.914 22.6447 23.1212 22.8518 23.3757 22.8518C23.4993 22.8518 23.6154 22.8039 23.7025 22.717C23.7894 22.6299 23.8373 22.5138 23.8373 22.3902V18.0492C23.8373 17.9046 23.9544 17.7873 24.0992 17.7873C24.2438 17.7873 24.3611 17.9044 24.3611 18.0492L24.3609 21.5455V21.5862C24.3609 21.8405 24.5681 22.0477 24.8227 22.0477C24.9462 22.0477 25.062 21.9996 25.1496 21.9124C25.2365 21.8256 25.2844 21.7098 25.2844 21.586V18.049C25.2844 17.9044 25.4015 17.7871 25.5463 17.7871C25.6909 17.7871 25.8082 17.9042 25.8082 18.049L25.8078 20.7188C25.8078 20.9735 26.015 21.1806 26.2693 21.1806C26.3931 21.1806 26.5089 21.1326 26.5958 21.0458C26.6831 20.9586 26.7308 20.8425 26.7308 20.7188L26.7309 15.3073C26.7309 13.5026 25.3951 12.034 23.753 12.034L23.753 12.034Z" fill="#FEDD30"/>
<path d="M15.9796 25.4653L19.78 23.1855C20.2382 22.9103 20.8277 23.0272 21.1216 23.4518C21.2289 23.6064 21.2836 23.7867 21.2922 23.9702C21.4338 23.8962 21.588 23.856 21.7449 23.856C21.8253 23.856 21.906 23.866 21.9857 23.8859C22.241 23.9497 22.4562 24.1092 22.5915 24.3349C22.7269 24.5609 22.7665 24.8257 22.7027 25.0807C22.6438 25.3167 22.5003 25.5153 22.3007 25.6516C22.4403 25.7339 22.5606 25.8463 22.6462 25.9893C22.7817 26.2153 22.8212 26.48 22.7576 26.7353C22.6938 26.9903 22.5342 27.2055 22.3083 27.3411L22.307 27.3419C22.444 27.4241 22.5623 27.5353 22.6469 27.6761C22.7825 27.9021 22.8221 28.1669 22.7583 28.4223C22.6943 28.6775 22.5347 28.8926 22.3091 29.0281L17.6688 31.8119C16.8028 32.3312 15.8016 32.5105 14.8501 32.3162C13.8901 32.12 13.095 31.5682 12.6116 30.7623C11.8466 29.4873 11.9612 27.9808 12.9102 26.8311C12.9537 26.7786 12.9965 26.7251 13.0354 26.6697C13.0765 26.6112 13.1246 26.5423 13.141 26.5187C13.2392 26.3432 14.8421 23.4553 14.8419 23.4556C15.0038 23.1635 15.3072 22.9982 15.6201 22.9984C15.766 22.9984 15.9141 23.0343 16.0507 23.1101C16.2157 23.2022 16.3543 23.3365 16.4512 23.4984C16.6504 23.8305 16.6575 24.2461 16.4699 24.5824L15.9796 25.4653ZM16.0024 23.7676C15.9516 23.6828 15.8817 23.6153 15.7963 23.5674C15.6197 23.4697 15.3973 23.5333 15.3001 23.7093C14.1531 25.7756 13.7621 26.4797 13.6113 26.7303L13.6147 26.7311C13.6021 26.7731 13.6021 26.7731 13.464 26.9704C13.4171 27.0372 13.3661 27.1013 13.3141 27.1644C12.4981 28.1531 12.4033 29.3974 13.0604 30.493C13.4674 31.1716 14.1401 31.6368 14.9547 31.8031C15.7781 31.9705 16.6459 31.8147 17.3992 31.3628L22.0399 28.5789C22.1458 28.5154 22.2206 28.4145 22.2504 28.295C22.2803 28.1756 22.2617 28.0515 22.1981 27.9455C22.0673 27.7274 21.7831 27.6558 21.5649 27.7871L19.2756 29.1606C19.1516 29.235 18.9906 29.195 18.9163 29.0709C18.8419 28.9469 18.882 28.786 19.006 28.7116L21.2955 27.3381L22.0391 26.892C22.145 26.8284 22.2199 26.7276 22.2498 26.6083C22.2796 26.4888 22.2611 26.3645 22.1975 26.2587C22.0664 26.0404 21.7822 25.9694 21.5643 26.1003L18.5313 27.9198C18.407 27.9944 18.2464 27.9541 18.1719 27.8301C18.0975 27.7061 18.1378 27.5452 18.2617 27.4708L21.9841 25.2377C22.0901 25.1741 22.1648 25.0734 22.1947 24.9538C22.2245 24.8345 22.206 24.7103 22.1425 24.6044C22.0791 24.4986 21.9782 24.4238 21.8587 24.394C21.7385 24.3641 21.6148 24.3827 21.5092 24.446L20.8201 24.8594C20.8199 24.8594 20.8199 24.8596 20.8198 24.8596H20.8196L17.7867 26.6791C17.6624 26.7538 17.5017 26.7135 17.4274 26.5894C17.353 26.4654 17.3933 26.3045 17.5171 26.23L20.5502 24.4105C20.6561 24.3469 20.7311 24.2461 20.7609 24.1268C20.7937 23.996 20.7688 23.8622 20.691 23.75C20.5562 23.555 20.2679 23.5032 20.0493 23.6345L15.412 26.4165C15.3105 26.4772 15.1804 26.4624 15.0953 26.3803C15.0101 26.298 14.9909 26.1686 15.0483 26.0651L16.0126 24.3277C16.1093 24.1541 16.1055 23.9396 16.0024 23.7677L16.0024 23.7676Z" fill="#FEDD30"/>
<path d="M34.1394 30.7622C33.6561 31.5682 32.8612 32.1199 31.9011 32.3161C30.9494 32.5101 29.9486 32.3311 29.0824 31.8118L24.4417 29.0279C24.2158 28.8924 24.0561 28.6772 23.9922 28.4217C23.9287 28.1667 23.9684 27.9019 24.1037 27.6762C24.1881 27.5352 24.3065 27.424 24.4438 27.3418L24.4425 27.341C24.2167 27.2055 24.0569 26.9904 23.9933 26.7352C23.9294 26.48 23.969 26.215 24.1045 25.9891C24.1917 25.8439 24.3113 25.7304 24.4477 25.6499C24.2496 25.5136 24.107 25.3157 24.0482 25.0808C23.9843 24.8255 24.024 24.5606 24.1594 24.335C24.2947 24.1092 24.5101 23.9496 24.7652 23.8858C24.8449 23.8658 24.9258 23.856 25.0058 23.856C25.1629 23.8561 25.3171 23.896 25.4588 23.9701C25.4675 23.7866 25.5221 23.6064 25.6293 23.4517C25.9234 23.0275 26.5124 22.9101 26.9713 23.1854L30.7715 25.4649L30.2816 24.5826C30.0937 24.2458 30.1006 23.8302 30.2998 23.498C30.3969 23.3363 30.5357 23.202 30.7015 23.109C30.8377 23.0335 30.9853 22.9978 31.1309 22.9978C31.4437 22.9979 31.7474 23.1629 31.9091 23.455C32.4726 24.4703 33.5359 26.3851 33.6106 26.5187C33.6266 26.5419 33.6746 26.6107 33.7158 26.6693C33.755 26.7249 33.7973 26.778 33.8411 26.8308C34.7899 27.981 34.9044 29.4873 34.1394 30.7622L34.1394 30.7622ZM33.437 27.1646C33.3849 27.1014 33.3337 27.037 33.2871 26.9706C33.1455 26.7695 33.1418 26.7643 33.1312 26.7116C32.9656 26.4376 32.5615 25.7101 31.4508 23.7091C31.3534 23.5334 31.132 23.4693 30.9557 23.5667C30.8689 23.6153 30.7992 23.683 30.7484 23.7678C30.6454 23.9395 30.6415 24.154 30.7387 24.3281L31.7027 26.065C31.7602 26.1686 31.741 26.2979 31.6559 26.3802C31.571 26.4627 31.4411 26.4771 31.3391 26.4164L26.7018 23.6344C26.4832 23.5034 26.195 23.5547 26.0599 23.7499C25.9822 23.8621 25.9574 23.9959 25.9899 24.1266C26.0197 24.246 26.0947 24.3467 26.2008 24.4103C26.2011 24.4104 26.2012 24.4108 26.2016 24.4109L29.2336 26.2299C29.3576 26.3044 29.3978 26.4651 29.3233 26.5892C29.2489 26.7131 29.0883 26.7536 28.964 26.679L25.2416 24.4459C25.136 24.3826 25.0117 24.3639 24.8923 24.3939C24.7726 24.4237 24.6719 24.4985 24.6084 24.6046C24.5448 24.7104 24.5264 24.8345 24.5559 24.9539C24.5858 25.0733 24.6607 25.1742 24.7667 25.2378L25.491 25.6722L28.4889 27.4709C28.6129 27.5454 28.6531 27.7061 28.5787 27.8302C28.5042 27.954 28.3437 27.9944 28.2193 27.9199L25.1866 26.1004C24.9685 25.9692 24.6845 26.0404 24.5533 26.2588C24.4897 26.3648 24.4713 26.4889 24.5008 26.6083C24.5307 26.7277 24.6056 26.8284 24.7117 26.8922L25.4553 27.3382L27.7444 28.7117C27.8684 28.7861 27.9086 28.9468 27.8341 29.071C27.7597 29.1948 27.5991 29.2355 27.4748 29.1607L25.1857 27.7872C25.08 27.7239 24.9562 27.7052 24.8362 27.7353C24.7168 27.7651 24.6158 27.8399 24.5523 27.9457C24.4889 28.0516 24.4703 28.1759 24.4998 28.2951C24.5297 28.4145 24.6046 28.5152 24.7107 28.579L29.3514 31.3629C30.1045 31.8147 30.973 31.9711 31.7959 31.8032C32.6103 31.6369 33.283 31.1717 33.69 30.4931C34.3478 29.3973 34.2532 28.1529 33.4373 27.1645L33.437 27.1646Z" fill="#FEDD30"/>
</svg>
