<svg width="34" height="34" viewBox="0 0 34 34" fill="none" xmlns="http://www.w3.org/2000/svg">
<path d="M27.973 29.3839V26.5997C27.973 25.1228 27.3863 23.7064 26.342 22.6621C25.2977 21.6178 23.8813 21.0311 22.4045 21.0311H21.0123C20.6431 21.0311 20.289 20.8844 20.0279 20.6234C19.7669 20.3623 19.6202 20.0082 19.6202 19.639V12.6783C19.6202 11.9398 19.3268 11.2316 18.8047 10.7095C18.2825 10.1873 17.5743 9.894 16.8359 9.894C16.0975 9.894 15.3893 10.1873 14.8671 10.7095C14.345 11.2316 14.0516 11.9398 14.0516 12.6783V25.2075L10.7105 20.7527C10.4511 20.4069 10.1148 20.1262 9.72824 19.9329C9.34162 19.7396 8.91531 19.639 8.48307 19.639H7.87888C6.67468 19.639 5.69879 20.6149 5.69879 21.8191C5.69879 22.2144 5.80599 22.6028 6.00924 22.9411L9.87521 29.3839M16.8359 5.71758V4.32544V5.71758ZM25.1887 14.0704H26.5809H25.1887ZM7.09093 14.0704H8.48307H7.09093ZM10.3527 7.58722L9.36847 6.60298L10.3527 7.58722ZM23.3191 7.58722L24.3033 6.60298L23.3191 7.58722Z" fill="#FEDD30"/>
<path d="M27.973 29.3839V26.5997C27.973 25.1228 27.3863 23.7064 26.342 22.6621C25.2977 21.6178 23.8813 21.0311 22.4045 21.0311H21.0123C20.6431 21.0311 20.289 20.8844 20.0279 20.6234C19.7669 20.3623 19.6202 20.0082 19.6202 19.639V12.6783C19.6202 11.9398 19.3268 11.2316 18.8047 10.7095C18.2825 10.1873 17.5743 9.894 16.8359 9.894V9.894C16.0975 9.894 15.3893 10.1873 14.8671 10.7095C14.345 11.2316 14.0516 11.9398 14.0516 12.6783V25.2075L10.7105 20.7527C10.4511 20.4069 10.1148 20.1262 9.72824 19.9329C9.34162 19.7396 8.91531 19.639 8.48307 19.639H7.87888C6.67468 19.639 5.69879 20.6149 5.69879 21.8191C5.69879 22.2144 5.80599 22.6028 6.00924 22.9411L9.87521 29.3839M16.8359 5.71758V4.32544M25.1887 14.0704H26.5809M7.09093 14.0704H8.48307M10.3527 7.58722L9.36847 6.60298M23.3191 7.58722L24.3033 6.60298" stroke="#FEDD30" stroke-width="1.39214" stroke-linecap="round" stroke-linejoin="round"/>
</svg>
